<svg xmlns="http://www.w3.org/2000/svg" version="1.1" xmlns:xlink="http://www.w3.org/1999/xlink" xmlns:svgjs="http://svgjs.com/svgjs" width="512" height="512" x="0" y="0" viewBox="0 0 512.001 512.001" style="enable-background:new 0 0 512 512" xml:space="preserve" class=""><g><g xmlns="http://www.w3.org/2000/svg"><g><g><g fill="#229bff"><path d="m51.936 358.845c-1.715 0-3.457-.385-5.097-1.2-5.682-2.82-8.002-9.713-5.181-15.395 1.861-3.75 3.849-7.597 5.909-11.433 3.001-5.588 9.965-7.686 15.553-4.686 5.588 3.001 7.686 9.964 4.686 15.553-1.945 3.621-3.819 7.248-5.573 10.78-2.005 4.04-6.071 6.381-10.297 6.381z" fill="#229bff" data-original="#229bff" style=""></path><path d="m366.031 44.813c-4.227 0-8.293-2.341-10.298-6.384-2.819-5.682-.499-12.574 5.184-15.394 3.938-1.954 7.867-3.816 11.679-5.535 5.784-2.609 12.586-.034 15.193 5.747 2.608 5.783.035 12.585-5.747 15.193-3.557 1.604-7.229 3.345-10.916 5.174-1.64.813-3.381 1.199-5.095 1.199z" fill="#229bff" data-original="#229bff" style=""></path></g><g><g><g><g><g><g><g><ellipse cx="255.997" cy="234.041" fill="#73e1ff" rx="232" ry="231.997" transform="matrix(.001 -1 1 .001 21.602 489.714)" data-original="#73e1ff" style=""></ellipse><path d="m51.763 210.646c10.429 0 19.511-7.366 21.904-17.815 17.125-74.767 79.805-132.529 157.417-142.835 11.26-1.495 19.724-11.294 19.724-22.979 0-13.89-11.807-24.749-25.194-22.998-96.618 12.64-174.524 84.724-195.821 178.336-3.293 14.473 7.528 28.291 21.97 28.291z" fill="#b6f0ff" data-original="#b6f0ff" style=""></path><path d="m184.041 13.435c-23.19 7.558-44.775 18.668-64.11 32.691-11.385 8.258-12.853 25.044-2.971 35.147l.321.328c7.672 7.844 19.716 8.919 28.551 2.5 15.632-11.359 33.1-20.367 51.871-26.499 11.675-3.813 18.055-16.728 14.364-28.749-.045-.148-.091-.296-.136-.444-3.699-12.042-16.192-18.786-27.89-14.974z" fill="#dcfeff" data-original="#dcfeff" style=""></path><path d="m204.9 303.157-24.2 66.665c-2.745 7.569-10.727 11.886-18.55 10.029l-4.348-1.016c-6.062-1.444-10.727-6.284-11.917-12.409l-8.077-41.259c-2.079-10.664-14.044-16.123-23.47-10.711-7.172 4.117-15.922 4.396-23.342.744l-61.381-30.212c-3.682-16.393-5.618-33.436-5.618-50.939 0-53.51 18.122-102.814 48.558-142.058l103.464 24.74c5.998 1.444 10.616 6.205 11.854 12.251l1.428 6.935c1.809 8.871-4.126 17.456-13.076 18.868l-14.837 2.349c-6.887 1.079-12.251 6.538-13.235 13.425l-1.317 9.14c-.555 3.92.365 7.919 2.602 11.188l20.502 30.087c3.602 5.284 3.682 12.187.222 17.551l-5.522 8.553c-5.078 7.855-2.301 18.36 5.998 22.692l26.675 13.901c7.063 3.665 10.316 11.996 7.587 19.486z" fill="#79ff79" data-original="#79ff79" style="" class=""></path><path d="m122.684 103.976c-23.897 24.144-41.206 54.73-49.015 88.857-2.4 10.446-11.479 17.815-21.908 17.815-14.438 0-25.257-13.821-21.968-28.291.08-.36.16-.72.24-1.091 0-.041.01-.082.02-.124 7.699-32.974 22.418-63.251 42.506-89.155z" fill="#c2ffc2" data-original="#c2ffc2" style=""></path></g><g><path d="m487.983 234.037c0 128.126-103.848 231.998-231.996 231.999-103.137 0-190.548-67.284-220.717-160.382 37.757 57.06 102.518 94.702 176.083 94.702 116.502 0 210.951-94.45 210.951-210.976 0-73.543-37.642-138.305-94.724-176.062 93.097 30.145 160.403 117.58 160.403 220.719z" fill="#5cceff" data-original="#5cceff" style=""></path></g></g></g></g></g><path d="m487.997 234.048c0 34.134-7.363 66.538-20.598 95.721l-37.99-41.799c-3.015-3.301-7.284-5.189-11.743-5.189h-57.841c-6.411 0-12.187 3.856-14.647 9.775l-30.436 73.219c-2.46 5.919-8.236 9.775-14.647 9.775h-10.521c-6.586 0-12.489-4.078-14.837-10.235l-22.232-58.604c-2.142-5.665-.889-12.06 3.253-16.472l16.456-17.567c5.76-6.141 5.713-15.726-.127-21.82l-14.964-15.647c-.746-.778-1.571-1.476-2.46-2.079l-20.836-14.361c-7.934-5.475-9.204-16.678-2.698-23.787l21.074-23.01c3.967-4.332 10.013-6.125 15.71-4.634l65.109 17.027c5.237 1.381 10.807-.016 14.774-3.682l23.232-21.423c4.65-4.285 6.316-10.934 4.221-16.916l-3.317-9.442c-1.539-4.411-4.951-7.919-9.315-9.569l-17.963-6.839c-2.126-.825-4.062-2.079-5.665-3.713l-15.186-15.456c-5.475-5.57-6.078-14.298-1.412-20.582l37.339-50.273c76.059 38.087 128.267 116.733 128.267 207.582z" fill="#79ff79" data-original="#79ff79" style="" class=""></path><g fill="#29e088"><path d="m487.997 234.048c0 34.134-7.363 66.538-20.598 95.721l-37.99-41.799c-3.015-3.301-7.284-5.189-11.743-5.189h-17.122c13.933-28.151 21.756-59.857 21.756-93.404 0-61.444-26.279-116.763-68.219-155.308l5.649-7.601c76.059 38.085 128.267 116.731 128.267 207.58z" fill="#29e088" data-original="#29e088" style=""></path><circle cx="73.524" cy="263.022" r="11.391" fill="#29e088" data-original="#29e088" style=""></circle><circle cx="143.162" cy="234.041" r="11.391" fill="#29e088" data-original="#29e088" style=""></circle></g><circle cx="99.726" cy="280.733" fill="#0cc166" r="8.795" data-original="#0cc166" style=""></circle><circle cx="317.327" cy="219.747" fill="#c2ffc2" r="8.795" data-original="#c2ffc2" style=""></circle><circle cx="372.03" cy="214.681" fill="#29e088" r="8.795" data-original="#29e088" style=""></circle><circle cx="441.753" cy="218.599" fill="#0cc166" r="8.795" data-original="#0cc166" style=""></circle><circle cx="454.224" cy="248.471" fill="#79ff79" r="8.795" data-original="#79ff79" style="" class=""></circle><circle cx="357.48" cy="83.195" fill="#29e088" r="8.795" data-original="#29e088" style=""></circle><circle cx="317.327" cy="254.227" fill="#c2ffc2" r="8.795" data-original="#c2ffc2" style=""></circle><circle cx="276.339" cy="212.464" fill="#c2ffc2" r="11.455" data-original="#c2ffc2" style=""></circle><circle cx="287.794" cy="298.088" fill="#29e088" r="8.795" data-original="#29e088" style=""></circle><circle cx="114.929" cy="192.749" fill="#c2ffc2" r="8.795" data-original="#c2ffc2" style=""></circle><circle cx="84.915" cy="205.885" fill="#0cc166" r="8.795" data-original="#0cc166" style=""></circle><circle cx="421.039" cy="161.724" fill="#0cc166" r="16.394" data-original="#0cc166" style=""></circle></g><path d="m254.976 70.3-13.784 11.896c-3.252 2.806-4.777 7.201-3.99 11.493l4.886 26.628c.899 4.9 4.633 8.727 9.397 9.633l46.039 8.748c4.445.845 8.966-1.015 11.622-4.78l.097-.138c4.241-6.012 2.25-14.503-4.188-17.863l-9.73-5.077c-3.71-1.936-6.147-5.75-6.404-10.023l-.763-12.688c-.23-3.816-2.201-7.294-5.316-9.378l-13.938-9.323c-4.323-2.893-9.976-2.539-13.928.872z" fill="#c2ffc2" data-original="#c2ffc2" style=""></path><path d="m417.12 400.939c-25.432 24.571-56.472 43.358-90.996 54.297v-21.755c0-4.064 2.185-7.794 5.677-9.69l12.642-6.868c2.696-1.465 4.653-4.049 5.374-7.098l14.483-61.227c1.161-4.91 5.434-8.365 10.344-8.365 5.297 0 9.788 4.008 10.539 9.405l1.963 14.121c.6 4.315 3.628 7.854 7.71 9.012l5.248 1.489c2.895.821 5.318 2.862 6.673 5.621z" fill="#29e088" data-original="#29e088" style=""></path><circle cx="371.622" cy="412.32" fill="#79ff79" r="8.795" data-original="#79ff79" style="" class=""></circle><g><circle cx="382.336" cy="387.555" fill="#0cc166" r="7.275" data-original="#0cc166" style=""></circle></g></g><g fill="#229bff"><path d="m81.133 474.827c-5.748 0-10.711-4.307-11.394-10.155-.735-6.301 3.776-12.005 10.077-12.741 3.501-.409 7.248-1.056 11.138-1.925 6.184-1.382 12.329 2.516 13.712 8.708 1.383 6.191-2.516 12.33-8.707 13.712-4.66 1.04-9.195 1.821-13.479 2.321-.452.054-.902.08-1.347.08z" fill="#229bff" data-original="#229bff" style=""></path><path d="m40.117 464.738c-2.944 0-5.886-1.124-8.13-3.372-3.9-3.909-7.041-8.574-9.332-13.866-2.52-5.821.156-12.584 5.976-15.104 5.825-2.522 12.584.156 15.105 5.976 1.155 2.669 2.631 4.882 4.51 6.766 4.482 4.49 4.474 11.762-.015 16.243-2.241 2.238-5.178 3.357-8.114 3.357z" fill="#229bff" data-original="#229bff" style=""></path><path d="m134.711 458.338c-4.378 0-8.558-2.515-10.476-6.764-2.609-5.782-.038-12.585 5.744-15.194 3.56-1.607 7.232-3.348 10.916-5.176 5.681-2.817 12.575-.499 15.394 5.183s.5 12.575-5.183 15.395c-3.934 1.952-7.863 3.815-11.677 5.536-1.533.693-3.138 1.02-4.718 1.02z" fill="#229bff" data-original="#229bff" style=""></path><path d="m184.142 431.543c-3.835 0-7.582-1.919-9.76-5.413-3.355-5.383-1.71-12.468 3.674-15.823 3.397-2.116 6.872-4.335 10.326-6.594 5.308-3.472 12.428-1.982 15.899 3.329 3.471 5.31 1.981 12.428-3.328 15.899-3.594 2.35-7.211 4.659-10.749 6.864-1.888 1.176-3.988 1.738-6.062 1.738z" fill="#229bff" data-original="#229bff" style=""></path><path d="m32.219 411.386c-.83 0-1.672-.091-2.517-.279-6.191-1.384-10.087-7.524-8.703-13.715.927-4.145 2.083-8.494 3.436-12.925 1.853-6.067 8.271-9.48 14.34-7.63 6.067 1.853 9.483 8.273 7.63 14.34-1.184 3.874-2.188 7.652-2.988 11.227-1.195 5.346-5.939 8.982-11.198 8.982z" fill="#229bff" data-original="#229bff" style=""></path><path d="m230.468 399.649c-3.49 0-6.937-1.584-9.195-4.59-3.809-5.073-2.784-12.273 2.289-16.082 3.244-2.436 6.536-4.951 9.786-7.475 5.009-3.891 12.226-2.985 16.116 2.025 3.892 5.009 2.986 12.225-2.024 16.117-3.348 2.601-6.741 5.193-10.086 7.704-2.066 1.551-4.487 2.301-6.886 2.301z" fill="#229bff" data-original="#229bff" style=""></path><path d="m274.23 364.31c-3.221 0-6.425-1.348-8.696-3.977-4.147-4.8-3.618-12.053 1.182-16.2 3.093-2.672 6.216-5.408 9.285-8.134 4.743-4.213 12.003-3.783 16.215.96s3.782 12.002-.961 16.215c-3.147 2.795-6.35 5.602-9.522 8.342-2.17 1.875-4.842 2.794-7.503 2.794z" fill="#229bff" data-original="#229bff" style=""></path><path d="m315.652 326.257c-2.99 0-5.975-1.159-8.227-3.47-4.428-4.543-4.333-11.815.21-16.242 2.928-2.853 5.886-5.773 8.792-8.679 4.487-4.486 11.757-4.486 16.244 0 4.486 4.486 4.486 11.758 0 16.244-2.977 2.976-6.005 5.966-9.004 8.888-2.233 2.175-5.126 3.259-8.015 3.259z" fill="#229bff" data-original="#229bff" style=""></path><path d="m354.779 285.845c-2.764 0-5.538-.992-7.741-3.002-4.684-4.277-5.016-11.541-.739-16.226 2.762-3.027 5.543-6.115 8.263-9.176 4.214-4.743 11.474-5.17 16.216-.957s5.17 11.473.957 16.215c-2.789 3.138-5.638 6.302-8.471 9.405-2.265 2.481-5.37 3.741-8.485 3.741z" fill="#229bff" data-original="#229bff" style=""></path><path d="m391.383 243.136c-2.521 0-5.058-.825-7.178-2.525-4.949-3.968-5.745-11.197-1.776-16.146 2.591-3.232 5.161-6.487 7.638-9.675 3.892-5.008 11.108-5.915 16.116-2.024 5.01 3.891 5.916 11.107 2.024 16.117-2.548 3.28-5.191 6.629-7.856 9.952-2.267 2.829-5.603 4.301-8.968 4.301z" fill="#229bff" data-original="#229bff" style=""></path><path d="m424.933 197.991c-2.232 0-4.487-.649-6.468-2.002-5.238-3.578-6.584-10.725-3.006-15.963 2.324-3.402 4.618-6.835 6.821-10.203 3.471-5.308 10.587-6.797 15.899-3.326 5.31 3.472 6.798 10.591 3.326 15.9-2.286 3.496-4.667 7.057-7.078 10.585-2.223 3.257-5.827 5.009-9.494 5.009z" fill="#229bff" data-original="#229bff" style=""></path><path d="m454.313 150.041c-1.833 0-3.693-.44-5.422-1.367-5.589-3-7.689-9.963-4.689-15.552 1.946-3.625 3.821-7.253 5.572-10.781 2.82-5.682 9.714-8.002 15.394-5.183 5.683 2.82 8.003 9.713 5.183 15.395-1.86 3.747-3.847 7.593-5.908 11.433-2.071 3.859-6.035 6.055-10.13 6.055z" fill="#229bff" data-original="#229bff" style=""></path><path d="m476.587 98.469c-1.11 0-2.239-.162-3.356-.503-6.067-1.851-9.485-8.27-7.634-14.338 1.182-3.871 2.186-7.649 2.987-11.231 1.385-6.191 7.522-10.087 13.716-8.703 6.191 1.384 10.087 7.524 8.703 13.715-.928 4.149-2.083 8.497-3.433 12.924-1.512 4.95-6.063 8.136-10.983 8.136z" fill="#229bff" data-original="#229bff" style=""></path><path d="m478.792 43.356c-4.438 0-8.663-2.586-10.543-6.917-1.157-2.667-2.635-4.878-4.516-6.759-4.486-4.486-4.486-11.758 0-16.244 4.487-4.486 11.757-4.486 16.244 0 3.905 3.906 7.05 8.569 9.346 13.859 2.525 5.819-.145 12.584-5.964 15.108-1.49.646-3.042.953-4.567.953z" fill="#229bff" data-original="#229bff" style=""></path><path d="m418.557 25.096c-5.263 0-10.007-3.639-11.2-8.989-1.381-6.191 2.52-12.33 8.71-13.71 4.659-1.039 9.195-1.819 13.481-2.318 6.289-.736 12.003 3.779 12.737 10.08s-3.778 12.004-10.08 12.738c-3.502.408-7.25 1.054-11.138 1.922-.842.187-1.683.277-2.51.277z" fill="#229bff" data-original="#229bff" style=""></path></g></g><g><g fill="#fcad97"><path d="m142.383 331.195c-3.17-4.68-2.277-11.001 2.064-14.621l31.098-25.933 17.942 26.494-37.245 17.816c-4.913 2.351-10.806.753-13.859-3.756z" fill="#fcad97" data-original="#fcad97" style=""></path><path d="m163.966 363.065c-3.17-4.68-2.277-11.001 2.064-14.621l31.098-25.933 17.942 26.494-37.245 17.816c-4.913 2.351-10.806.754-13.859-3.756z" fill="#fcad97" data-original="#fcad97" style=""></path><path d="m223.299 450.679c-3.17-4.68-2.277-11.001 2.064-14.621l31.098-25.933 17.942 26.494-37.245 17.816c-4.912 2.351-10.805.754-13.859-3.756z" fill="#fcad97" data-original="#fcad97" style=""></path><path d="m244.883 482.55c-3.17-4.68-2.277-11.001 2.064-14.621l31.098-25.933 17.942 26.494-37.245 17.816c-4.913 2.35-10.806.753-13.859-3.756z" fill="#fcad97" data-original="#fcad97" style=""></path></g><g><path d="m163.832 469.379-12.061-33.9-25.835 17.496 18.797 27.757c1.617 2.387 4.863 3.012 7.25 1.395l9.857-6.675c1.971-1.334 2.79-3.831 1.992-6.073z" fill="#29e088" data-original="#29e088" style=""></path><path d="m161.841 475.45-9.86 6.68c-2.38 1.61-5.63.99-7.25-1.4l-1.6-2.36c6.88-4.02 11.5-11.49 11.5-20.03 0-7.58-3.63-14.31-9.25-18.53l6.39-4.33 12.06 33.9c.8 2.24-.02 4.74-1.99 6.07z" fill="#0cc166" data-original="#0cc166" style=""></path><path d="m124.769 411.698 27.002 23.781-25.835 17.496-18.797-27.757c-1.617-2.387-.992-5.634 1.395-7.25l9.857-6.675c1.97-1.334 4.593-1.167 6.378.405z" fill="#29e088" data-original="#29e088" style=""></path><path d="m151.771 435.48-25.83 17.5-9.92-14.65c6.89-3.54 11.6-10.73 11.6-19.01 0-2.02-.28-3.97-.81-5.82z" fill="#0cc166" data-original="#0cc166" style=""></path></g><g><path d="m279.342 507.412-68.737-101.498 53.911-36.509 43.352 121.852c1.595 4.483-.043 9.478-3.983 12.146l-10.043 6.801c-4.775 3.233-11.267 1.983-14.5-2.792z" fill="#ffdbcf" data-original="#ffdbcf" style=""></path><path d="m303.881 503.4-10.04 6.8c-4.77 3.24-11.27 1.99-14.5-2.79l-7.94-11.73c3.2-11.41 4.94-23.67 4.94-36.43 0-31.2-10.38-59.39-27.09-79.52l15.26-10.33 43.36 121.86c1.59 4.48-.05 9.47-3.99 12.14z" fill="#ffccb7" data-original="#ffccb7" style=""></path><path d="m133.224 291.651 68.737 101.498 53.911-36.509-97.058-85.481c-3.571-3.145-8.816-3.478-12.756-.81l-10.043 6.801c-4.775 3.234-6.025 9.726-2.791 14.501z" fill="#ffdbcf" data-original="#ffdbcf" style=""></path><path d="m255.871 356.64-53.91 36.51-14.52-21.44c9.77-12.24 15.61-27.77 15.61-44.65 0-6.67-.91-13.13-2.62-19.25z" fill="#ffccb7" data-original="#ffccb7" style=""></path></g><g><path d="m223.82 396.965-13.215 8.949 68.737 101.498c3.234 4.775 9.726 6.024 14.501 2.791l4.569-3.094z" fill="#29e088" data-original="#29e088" style=""></path><path d="m269.799 464.86-26.218-38.714c-2.781-4.106-8.616-4.668-12.125-1.163-.038.038-.077.077-.115.115-2.681 2.678-3.082 6.884-.957 10.022l26.218 38.714c2.778 4.102 8.604 4.667 12.116 1.172.038-.038.077-.076.115-.115 2.69-2.676 3.094-6.889.966-10.031z" fill="#79ff79" data-original="#79ff79" style="" class=""></path><path d="m260.254 450.766-7.643-11.286c-2.28-3.366-6.742-4.453-10.311-2.507-.047.026-.094.051-.141.077-4.098 2.233-5.389 7.502-2.772 11.366l7.645 11.289c2.32 3.425 6.892 4.486 10.476 2.422.046-.027.092-.053.139-.08 3.981-2.293 5.183-7.478 2.607-11.281z" fill="#c2ffc2" data-original="#c2ffc2" style=""></path><path d="m140.584 274.056-4.569 3.094c-4.775 3.234-6.024 9.726-2.791 14.501l68.737 101.498 13.215-8.949z" fill="#29e088" data-original="#29e088" style=""></path><path d="m180.329 332.745-21.928-32.379c-2.783-4.109-8.622-4.667-12.127-1.154-.038.038-.077.077-.115.115-2.675 2.681-3.079 6.878-.956 10.014l21.928 32.379c2.782 4.108 8.619 4.665 12.127 1.156.038-.038.077-.077.115-.115 2.679-2.678 3.08-6.88.956-10.016z" fill="#79ff79" data-original="#79ff79" style="" class=""></path><path d="m174.79 324.566-8.028-11.854c-2.525-3.729-7.656-4.6-11.263-1.903-.043.032-.085.064-.128.096-3.383 2.529-4.188 7.266-1.819 10.763l8.025 11.851c2.481 3.663 7.48 4.567 11.099 2.023.044-.031.087-.061.131-.092 3.519-2.476 4.395-7.322 1.983-10.884z" fill="#c2ffc2" data-original="#c2ffc2" style=""></path><path d="m215.171 384.2-13.21 8.95-14.52-21.44c3.63-4.55 6.72-9.55 9.17-14.92z" fill="#0cc166" data-original="#0cc166" style=""></path></g><path d="m262.841 394.492c-40.012 27.097-138.137 78.656-146.666 66.062s75.767-84.574 115.779-111.67c40.012-27.097 64.681-28.911 73.21-16.316s-2.311 34.828-42.323 61.924z" fill="#ffece6" data-original="#ffece6" style="" class=""></path></g></g><path d="m298.411 507.11-4.57 3.09c-4.77 3.24-11.27 1.99-14.5-2.79l-7.94-11.73c1.99-7.11 3.42-14.55 4.21-22.24z" fill="#0cc166" data-original="#0cc166" style=""></path><path d="m274.09 340.182c-3.212-6.417-10.999-9.046-17.44-5.882-7.447 3.659-15.681 8.475-24.7 14.579-17.802 12.058-44.365 32.998-67.622 53.641-5.272 4.679-6.081 12.617-1.893 18.288l.165.223c4.782 6.475 14.086 7.417 20.095 2.06 23.526-20.974 50.681-42.413 68.785-54.672 6.139-4.158 11.914-7.717 17.325-10.721 6.135-3.405 8.538-11.013 5.398-17.288-.037-.075-.075-.152-.113-.228z" fill="#fff7f5" data-original="#fff7f5" style=""></path><path d="m217.088 359.491c-9.347 6.949-19.782 15.148-30.31 23.838-6.083 5.022-6.6 14.165-1.126 19.844l.246.255c4.953 5.138 13.024 5.564 18.515 1.005 9.99-8.293 19.949-16.184 29.032-23.028 5.809-4.377 7.124-12.554 2.973-18.527-.052-.075-.104-.149-.155-.224-4.358-6.277-13.042-7.722-19.175-3.163z" fill="#ffffff" data-original="#ffffff" style="" class=""></path></g></g></svg>
